# xmcd
#
# Track frame offsets:
#	150
#	10820
#	25647
#	36157
#	53797
#	68577
#	95247
#	104707
#	122842
#	134467
#
# Disc length: 2195
#
# Revision: 1
# Processed by: cddbd v1.5.1PL0 Copyright (c) Steve Scherf et al.
# Submitted via: CDex 1.40Release
# Normalized: r0:TDELIM( - )
#
DISCID=8708910a
DTITLE=Various Artist - Rockin' the Blues
DYEAR=1999
DGENRE=Blues
TTITLE0=Jerry Lee Lewis - Chantilly Lace
TTITLE1=Canned Heat - Gamblin' Woman
TTITLE2=Robert Gordon - Lonesome Train (On a Lonesome Track)
TTITLE3=Kingfish - Mystery Train
TTITLE4=Jerry Lee Lewis - Whole Lotta Shakin' Going On
TTITLE5=Greg Lake and Gary Moore - Parisienne Walkways
TTITLE6=Steve Forbert - Too Much Monkey Business
TTITLE7=Jon Butcher - Wishes
TTITLE8=Robert Gordon - Rock Billy Boogie
TTITLE9=Uriah Heep - Roll Over Beethoven, Blue Suede Shoes, Hound Dog
EXTD=YEAR: 1999 ID3G: 0
EXTT0=
EXTT1=
EXTT2=
EXTT3=
EXTT4=
EXTT5=
EXTT6=
EXTT7=
EXTT8=
EXTT9=
PLAYORDER=
